<svg version="1.1" id="OBJECTS" xmlns="http://www.w3.org/2000/svg" xmlns:xlink="http://www.w3.org/1999/xlink" x="0px" y="0px"
	 viewBox="20 250 800 285" style="enable-background:new 0 0 800 800;" fill-opacity=".2" xml:space="preserve">
<style type="text/css">
	.wayfarer-landing svg{
		width: 100%;
		padding-top: 250px;
	}
	.st0{fill:#C7CEEF;}
	.st1{fill:#AFB9EF;}
	.st2{fill:#9BA9EF;}
	.st3{fill:#8697EF;}
</style>
<g id="_x30_4">
	<g>
		<polygon class="st0" points="78.3,538.3 78.3,529 122.3,529 122.3,459.7 143,459.7 143,344.3 152.3,344.3 152.3,336.3
			176.3,336.3 176.3,343.7 185,343.7 185,411 202.3,411 202.3,400.3 245.7,400.3 245.7,385.7 251.7,385.7 251.7,283 260.3,283
			260.3,271 267,271 267,255.7 273,255.7 273,270.3 279,270.3 279,283.7 289,283.7 289,395 317,395 317,372.3 347.7,372.3
			347.7,397.7 365,397.7 365,343.7 381.7,343.7 381.7,372.3 387.7,372.3 387.7,405.7 387.7,411.7 410.3,411.7 410.3,309
			448.3,266.3 455.7,266.3 455.7,387 468.3,387 468.3,373 509,373 509,387 521,387 521,263.7 534.3,263.7 534.3,253 561.7,253
			561.7,264.3 575,264.3 575,379 599,379 599,390.3 622.3,390.3 622.3,337 628.3,332.3 659.7,332.3 665.7,338.3 665.7,401.7
			682.3,401.7 682.3,438.3 698.3,438.3 698.3,475 698.3,538.3 		"/>
	</g>
</g>

</svg>