<svg version="1.1" id="OBJECTS" xmlns="http://www.w3.org/2000/svg" xmlns:xlink="http://www.w3.org/1999/xlink" x="0px" y="0px"
	 viewBox="20 250 800 285" style="enable-background:new 0 0 800 800;" fill-opacity=".2" xml:space="preserve">
<style type="text/css">
	.wayfarer-landing svg{
		width: 100%;
		background-color: #E7F3FF;
		padding-top: 250px;
	}
	.st0{fill:#C7CEEF;}
	.st1{fill:#AFB9EF;}
	.st2{fill:#9BA9EF;}
	.st3{fill:#8697EF;}
</style>

<g id="_x30_2">
	<g>
		<polygon class="st2" points="53.5,535 53.5,531 95.5,531 95.5,497.5 95.5,491 117,491 117,449 135.5,449 135.5,491 148.5,491
			148.5,476 155,476 155,468 197.5,468 197.5,476 204,476 204,491 229,491 229,460.5 242,460.5 242,491 254.5,491 254.5,449
			260,449 260,443 303,443 303,449 308.5,449 308.5,465.5 323,465.5 323,482.5 350.5,482.5 350.5,492.5 392.5,492.5 392.5,450.5
			409.5,450.5 409.5,442 418,442 418,450.5 435,450.5 435,471.5 449,471.5 449,484.5 504,484.5 504,444.5 564.5,444.5 564.5,461
			606,461 606,475 626,475 626,445.5 634,445.5 634,440.5 652,440.5 652,445.5 659,445.5 659,475 679.5,475 679.5,493 700,493
			700,485 712,485 712,504 736.5,504 736.5,529 754.5,529 754.5,534.5 754.5,538.5 53.5,538.5 		"/>
	</g>
</g>

</svg>