<svg version="1.1" id="OBJECTS" xmlns="http://www.w3.org/2000/svg" xmlns:xlink="http://www.w3.org/1999/xlink" x="0px" y="0px"
	 viewBox="20 250 800 285" style="enable-background:new 0 0 800 800;" fill-opacity=".2" xml:space="preserve">
<style type="text/css">
	.wayfarer-landing svg{
		width: 100%;
		background-color: #E7F3FF;
		padding-top: 250px;
	}
	.st0{fill:#C7CEEF;}
	.st1{fill:#AFB9EF;}
	.st2{fill:#9BA9EF;}
	.st3{fill:#8697EF;}
</style>

<g id="_x30_1">
	<g>
		<polygon class="st3" points="752.3,538.3 41.7,538.3 41.7,525 67.7,525 67.7,514.3 87,514.3 87,482.3 103,482.3 103,514.3
			121,514.3 121,499 124.6,499 124.6,495.3 147.4,495.3 147.4,499 150.5,499 150.5,514 157.5,514 157.5,491.5 169,491.5 169,515
			172.5,515 172.5,507.5 183,507.5 183,494.5 198.5,494.5 198.5,512.5 215,512.5 215,476 223.5,476 223.5,471 267.5,471
			267.5,477.5 274,477.5 274,514.5 283,514.5 283,505.5 291.5,505.5 291.5,514.5 300.5,514.5 300.5,501 320.5,501 320.5,515
			320.5,519 332,519 340,519 340,457 346,457 346,453.5 355.5,453.5 355.5,457.5 361,457.5 361,507 381,507 381,479 401,479
			401,496.5 446.5,496.5 446.5,515 466.5,515 466.5,470 489.5,470 489.5,505.5 505.5,505.5 505.5,516 521.5,516 521.5,507
			529.5,507 529.5,483 539,483 539,476.5 580.5,476.5 580.5,483 589.5,483 589.5,510 597.5,510 597.5,518 607.5,518 607.5,499
			653,499 653,509.5 692.5,509.5 692.5,523 714.5,523 714.5,515.5 727.5,515.5 727.5,523 744,523 744,532 762,532 762,538.3 		"/>
	</g>
</g>
</svg>