<svg version="1.1" id="OBJECTS" xmlns="http://www.w3.org/2000/svg" xmlns:xlink="http://www.w3.org/1999/xlink" x="0px" y="0px"
	 viewBox="20 250 800 285" style="enable-background:new 0 0 800 800;" fill-opacity=".2" xml:space="preserve">
<style type="text/css">
	.wayfarer-landing svg{
		width: 100%;
		background-color: #E7F3FF;
		padding-top: 250px;
	}
	.st0{fill:#C7CEEF;}
	.st1{fill:#AFB9EF;}
	.st2{fill:#9BA9EF;}
	.st3{fill:#8697EF;}
</style>
<g id="_x30_4">
	<g>
		<polygon class="st0" points="78.3,538.3 78.3,529 122.3,529 122.3,459.7 143,459.7 143,344.3 152.3,344.3 152.3,336.3
			176.3,336.3 176.3,343.7 185,343.7 185,411 202.3,411 202.3,400.3 245.7,400.3 245.7,385.7 251.7,385.7 251.7,283 260.3,283
			260.3,271 267,271 267,255.7 273,255.7 273,270.3 279,270.3 279,283.7 289,283.7 289,395 317,395 317,372.3 347.7,372.3
			347.7,397.7 365,397.7 365,343.7 381.7,343.7 381.7,372.3 387.7,372.3 387.7,405.7 387.7,411.7 410.3,411.7 410.3,309
			448.3,266.3 455.7,266.3 455.7,387 468.3,387 468.3,373 509,373 509,387 521,387 521,263.7 534.3,263.7 534.3,253 561.7,253
			561.7,264.3 575,264.3 575,379 599,379 599,390.3 622.3,390.3 622.3,337 628.3,332.3 659.7,332.3 665.7,338.3 665.7,401.7
			682.3,401.7 682.3,438.3 698.3,438.3 698.3,475 698.3,538.3 		"/>
	</g>
</g>
<g id="_x30_3">
	<g>
		<rect x="322.3" y="492" class="st1" width="0.3" height="0.5"/>
		<path class="st1" d="M729.7,511v-22H719v-49.3h-14.7V469H689v-10h-14.7v-34.7h-28.7v-14.7h-42v12.7h-19.3V405h-18v-40.7H559
			L534.3,381v16.7H519v16.7h-16v-48.7h-8v-8h-6v7.3h-8v74.7h-22.7v-32H433V425h-32.7v-30.7h-6.7v-6.7h-18v6h-5.3v28.7h-8.5v-23.1
			c0-2.6,0-5.3,0-8.2v-1.6h0c-0.4-30.1-4.3-69.7-22.1-67.8c-14.4,1.6-17.3,39.3-17.5,67.8h0V421h-10.5v-34.7h-42v34h-25.3v16h-8V367
			H229v-18.7h-2.7V367h-8.7v70h-23.3v-16.7h-18v-8h-24v8.7H127v43.3h-14.7v66H51v7.3l700.7,1.3v-28H729.7z"/>
	</g>
</g>
<g id="_x30_2">
	<g>
		<polygon class="st2" points="53.5,535 53.5,531 95.5,531 95.5,497.5 95.5,491 117,491 117,449 135.5,449 135.5,491 148.5,491
			148.5,476 155,476 155,468 197.5,468 197.5,476 204,476 204,491 229,491 229,460.5 242,460.5 242,491 254.5,491 254.5,449
			260,449 260,443 303,443 303,449 308.5,449 308.5,465.5 323,465.5 323,482.5 350.5,482.5 350.5,492.5 392.5,492.5 392.5,450.5
			409.5,450.5 409.5,442 418,442 418,450.5 435,450.5 435,471.5 449,471.5 449,484.5 504,484.5 504,444.5 564.5,444.5 564.5,461
			606,461 606,475 626,475 626,445.5 634,445.5 634,440.5 652,440.5 652,445.5 659,445.5 659,475 679.5,475 679.5,493 700,493
			700,485 712,485 712,504 736.5,504 736.5,529 754.5,529 754.5,534.5 754.5,538.5 53.5,538.5 		"/>
	</g>
</g>

</svg>