<svg version="1.0" xmlns="http://www.w3.org/2000/svg" viewBox="0 0 240.000000 240.000000"
 preserveAspectRatio="xMidYMid meet"
 xml:space="preserve">
<g transform="translate(0.000000,240.000000) scale(0.100000,-0.100000)"
fill="#000000" stroke="none">
<path d="M1040 2289 c-142 -15 -251 -70 -351 -176 -107 -115 -149 -219 -149
-368 0 -180 67 -314 210 -422 71 -54 113 -71 202 -83 96 -13 205 0 291 35 80
32 109 28 127 -15 28 -69 -11 -285 -78 -432 -58 -129 -184 -287 -294 -371 -69
-53 -260 -167 -313 -187 -24 -9 -25 -14 -25 -90 0 -44 4 -80 9 -80 25 0 228
77 318 120 397 193 671 513 768 900 46 183 55 350 30 525 -19 132 -45 213
-100 310 -134 235 -380 362 -645 334z"/>
</g>
</svg>
