
<svg version="1.1" id="OBJECTS" xmlns="http://www.w3.org/2000/svg" xmlns:xlink="http://www.w3.org/1999/xlink" x="0px" y="0px"
	 viewBox="20 140 800 285" style="enable-background:new 0 0 800 800;" fill-opacity=".3" xml:space="preserve">
<style type="text/css">
	.st0{fill:#C7CEEF;}
	.st1{fill:#AFB9EF;}
	.st2{display:none;}
	.st3{display:inline;}
	.st4{fill:#9BA9EF;}
	.st5{fill:#8697EF;}
</style>
<g id="_x30_4">
	<polygon class="st0" points="682.3,425 682.3,401.7 665.7,401.7 665.7,338.3 659.7,332.3 628.3,332.3 622.3,337 622.3,390.3 
		599,390.3 599,379 575,379 575,264.3 561.7,264.3 561.7,253 534.3,253 534.3,263.7 521,263.7 521,387 509,387 509,373 468.3,373 
		468.3,387 455.7,387 455.7,266.3 448.3,266.3 410.3,309 410.3,411.7 387.7,411.7 387.7,405.7 387.7,372.3 381.7,372.3 381.7,343.7 
		365,343.7 365,397.7 347.7,397.7 347.7,372.3 317,372.3 317,395 289,395 289,283.7 279,283.7 279,270.3 273,270.3 273,255.7 
		267,255.7 267,271 260.3,271 260.3,283 251.7,283 251.7,385.7 245.7,385.7 245.7,400.3 202.3,400.3 202.3,411 185,411 185,343.7 
		176.3,343.7 176.3,336.3 152.3,336.3 152.3,344.3 143,344.3 143,425 	"/>
</g>


</svg>
