
<svg version="1.1" id="OBJECTS" xmlns="http://www.w3.org/2000/svg" xmlns:xlink="http://www.w3.org/1999/xlink" x="0px" y="0px"
	 viewBox="20 140 800 285" xml:space="preserve">
<style type="text/css">
	.st0{fill:#C7CEEF;}
	.st1{fill:#D5E0F8;}
	.st2{display:none;}
	.st3{display:inline;}
	.st4{fill:#9BA9EF;}
	.st5{fill:#8697EF;}
</style>

<g id="_x30_3">
	<g>
		<rect  class="st1" />
		<path class="st1" d="M671.3,425v-23.3h-28.7v-14.6h-42v12.6h-19.3v-17.3h-18v-40.5H556l-24.7,16.6v16.6H516v16.6h-16v-48.5h-8v-8
			h-6v7.3h-8V417h-22.7v-31.9H430v17.3h-32.7v-30.6h-6.7v-6.6h-18v6h-5.3v28.6h-8.5v-23.1c0-2.6,0-5.3,0-8.1v-1.6h0
			c-0.4-30-4.3-69.5-22.1-67.5c-14.4,1.6-17.3,39.1-17.5,67.5h0v31.5h-10.5v-34.6h-42v33.9h-25.3v16h-8v-69.1H226V326h-2.7v18.6
			h-8.7v69.8h-23.3v-16.6h-18v-8h-24v8.6H124V425H671.3z"/>
	</g>
</g>

</svg>
